<svg width="268" height="138" xmlns="http://www.w3.org/2000/svg" xmlns:xlink="http://www.w3.org/1999/xlink"><defs><path id="a" d="M0 .75h267.621v113.727H.001z"/><path id="c" d="M0 138h268V0H0z"/></defs><g fill="none" fill-rule="evenodd" opacity=".5"><g transform="translate(0 23)"><mask id="b" fill="#fff"><use xlink:href="#a"/></mask><path d="M11.814.75h234.82c6.145 0 11.129 4.975 11.129 11.11 0 6.137-4.984 11.111-11.13 11.111h-45.886c-5.354 0-9.694 4.332-9.694 9.675 0 5.345 4.34 9.677 9.694 9.677h56.16c5.918 0 10.714 4.788 10.714 10.695s-4.796 10.696-10.715 10.696h-28.138c0 10.706-8.695 19.383-19.42 19.383-4.736 0-8.574 3.832-8.574 8.56v22.82H77.499v-1.879c0-11.389-9.19-20.654-20.6-20.766l-35.564-.423c-6.514-.065-11.763-5.355-11.763-11.86 0-6.549 5.319-11.858 11.881-11.858h35.485c0-10.799 8.77-19.553 19.59-19.553h1.66c6.586 0 11.924-5.328 11.924-11.902 0-6.574-5.338-11.901-11.923-11.901H11.814C5.288 24.335 0 19.055 0 12.542 0 6.03 5.288.75 11.814.75" fill="#EDF6FC" mask="url(#b)"/></g><mask id="d" fill="#fff"><use xlink:href="#c"/></mask><path fill="#9ECFEF" mask="url(#d)" d="M58 65h43v-5H58z"/><path d="M58.913 64.866h40.174v-3.732H58.913v3.732zM57 67h44v-8H57v8z" fill="#0686D8" mask="url(#d)"/><path fill="#FFF" mask="url(#d)" d="M54 137h51V64H54z"/><path fill="#0686D8" mask="url(#d)" d="M54.927 138H53V64h50v1.929H54.927z"/><path fill="#D2E9F7" mask="url(#d)" d="M61 137h38V71H61z"/><path d="M60.895 137.054h35.21V71.946h-35.21v65.108zM59 139h39V70H59v69z" fill="#0686D8" mask="url(#d)"/><path fill="#FFF" mask="url(#d)" d="M67 137h25V76H67z"/><path d="M67.967 136.064h24.066V76.936H67.967v59.128zM66 138h28V75H66v63z" fill="#0686D8" mask="url(#d)"/><path fill="#D2E9F7" mask="url(#d)" d="M166 137h34V40h-34z"/><path fill="#FFF" mask="url(#d)" d="M166 59h34V40h-34z"/><path fill="#0686D8" mask="url(#d)" d="M202 138h-36v-1.932h34.057V40.932h-31.08V39H202z"/><path fill="#0686D8" mask="url(#d)" d="M169 61h32v-2h-32zM169 66h28v-2h-28zM169 71h28v-2h-28zM169 77h28v-2h-28zM169 82h28v-2h-28zM169 88h28v-2h-28zM169 93h28v-2h-28zM169 99h28v-2h-28zM169 104h28v-2h-28zM169 110h28v-2h-28zM169 115h28v-2h-28zM169 121h28v-2h-28zM169 127h28v-2h-28zM169 132h28v-2h-28zM170 56h2V43h-2zM174 56h2V43h-2zM178 56h2V43h-2zM181 56h2V43h-2zM185 56h2V43h-2zM189 56h2V43h-2zM193 56h2V43h-2zM196 56h2V43h-2z"/><path fill="#FFF" mask="url(#d)" d="M142 28h21V18h-21z"/><path d="M142.915 27.014h19.167v-8.028h-19.167v8.028zM141 29h23V17h-23v12z" fill="#0686D8" mask="url(#d)"/><path fill="#FFF" mask="url(#d)" d="M138 136h30V24h-30z"/><path fill="#D2E9F7" mask="url(#d)" d="M144 136h17V24h-17z"/><path fill="#0686D8" mask="url(#d)" d="M141 18h2V0h-2zM162 18h2V0h-2zM151 19h2V6h-2zM169 137h-1.936V24.94h-28.128v18.142H137V23h32z"/><path fill="#0686D8" mask="url(#d)" d="M143 46h2V24h-2zM159 136h2V24h-2z"/><path fill="#FFF" mask="url(#d)" d="M100 137h29V34h-24.092v42.379H100z"/><path fill="#0686D8" mask="url(#d)" d="M100.903 137H99V75.146h4.917V33H129v1.927h-23.18v42.146h-4.917z"/><path fill="#5FB0E5" mask="url(#d)" d="M133 137h-4V27.902L133 25z"/><path fill="#0686D8" mask="url(#d)" d="M130.848 45H129V27.31l6-4.31v21.63h-1.848V26.71l-2.304 1.656z"/><path fill="#0686D8" mask="url(#d)" d="M133 26h2V3h-2zM105 38h24v-2h-24zM105 42h24v-2h-24zM105 46h24v-2h-24zM105 51h24v-2h-24zM105 55h24v-2h-24zM105 58h14v-2h-14zM105 62h14v-2h-14zM105 66h12v-2h-12zM105 71h11v-2h-11zM105 75h24v-2h-24zM105 77h24v-2h-24zM101 81h2v-2h-2zM104 81h2v-2h-2zM107 81h2v-2h-2zM110 81h2v-2h-2zM113 81h2v-2h-2zM115 81h2v-2h-2zM119 81h2v-2h-2zM121 81h2v-2h-2zM124 81h2v-2h-2zM127 81h2v-2h-2zM101 84h2v-2h-2zM104 84h2v-2h-2zM107 84h2v-2h-2zM110 84h2v-2h-2zM113 84h2v-2h-2zM115 84h2v-2h-2zM119 84h2v-2h-2zM121 84h2v-2h-2zM124 84h2v-2h-2zM127 84h2v-2h-2zM101 88h2v-2h-2zM104 88h2v-2h-2zM107 88h2v-2h-2zM110 88h2v-2h-2zM113 88h2v-2h-2zM115 88h2v-2h-2zM119 88h2v-2h-2zM121 88h2v-2h-2zM124 88h2v-2h-2zM127 88h2v-2h-2zM101 92h2v-2h-2zM104 92h2v-2h-2zM107 92h2v-2h-2zM110 92h2v-2h-2zM113 92h2v-2h-2zM115 92h2v-2h-2zM119 92h2v-2h-2zM121 92h2v-2h-2zM124 92h2v-2h-2zM127 92h2v-2h-2zM101 97h2v-2h-2zM104 97h2v-2h-2zM107 97h2v-2h-2zM110 97h2v-2h-2zM113 97h2v-2h-2zM115 97h2v-2h-2zM119 97h2v-2h-2zM121 97h2v-2h-2zM124 97h2v-2h-2zM127 97h2v-2h-2zM101 100h2v-2h-2zM104 100h2v-2h-2zM107 100h2v-2h-2zM110 100h2v-2h-2zM113 100h2v-2h-2zM115 100h2v-2h-2zM119 100h2v-2h-2zM121 100h2v-2h-2zM124 100h2v-2h-2zM127 100h2v-2h-2zM101 104h2v-2h-2zM104 104h2v-2h-2zM107 104h2v-2h-2zM110 104h2v-2h-2zM113 104h2v-2h-2zM115 104h2v-2h-2zM119 104h2v-2h-2zM121 104h2v-2h-2zM124 104h2v-2h-2zM127 104h2v-2h-2zM101 108h2v-2h-2zM104 108h2v-2h-2zM107 108h2v-2h-2zM110 108h2v-2h-2zM113 108h2v-2h-2zM115 108h2v-2h-2zM119 108h2v-2h-2zM121 108h2v-2h-2zM124 108h2v-2h-2zM127 108h2v-2h-2zM101 112h2v-2h-2zM104 112h2v-2h-2zM107 112h2v-2h-2zM110 112h2v-2h-2zM113 112h2v-2h-2zM115 112h2v-2h-2zM119 112h2v-2h-2zM121 112h2v-2h-2zM124 112h2v-2h-2zM127 112h2v-2h-2zM101 117h2v-2h-2zM104 117h2v-2h-2zM107 117h2v-2h-2zM110 117h2v-2h-2zM113 117h2v-2h-2zM115 117h2v-2h-2zM119 117h2v-2h-2zM121 117h2v-2h-2zM124 117h2v-2h-2zM127 117h2v-2h-2zM101 120h2v-2h-2zM104 120h2v-2h-2zM107 120h2v-2h-2zM110 120h2v-2h-2zM113 120h2v-2h-2zM115 120h2v-2h-2zM119 120h2v-2h-2zM121 120h2v-2h-2zM124 120h2v-2h-2zM127 120h2v-2h-2zM101 124h2v-2h-2zM104 124h2v-2h-2zM107 124h2v-2h-2zM110 124h2v-2h-2zM113 124h2v-2h-2zM115 124h2v-2h-2zM119 124h2v-2h-2zM121 124h2v-2h-2zM124 124h2v-2h-2zM127 124h2v-2h-2zM101 128h2v-2h-2zM104 128h2v-2h-2zM107 128h2v-2h-2zM110 128h2v-2h-2zM113 128h2v-2h-2zM115 128h2v-2h-2zM119 128h2v-2h-2zM121 128h2v-2h-2zM124 128h2v-2h-2zM127 128h2v-2h-2zM101 132h2v-2h-2zM104 132h2v-2h-2zM107 132h2v-2h-2zM110 132h2v-2h-2zM113 132h2v-2h-2zM115 132h2v-2h-2zM119 132h2v-2h-2zM121 132h2v-2h-2zM124 132h2v-2h-2zM127 132h2v-2h-2zM101 136h2v-2h-2zM104 136h2v-2h-2zM107 136h2v-2h-2zM110 136h2v-2h-2zM113 136h2v-2h-2zM115 136h2v-2h-2zM119 136h2v-2h-2zM121 136h2v-2h-2zM124 136h2v-2h-2zM127 136h2v-2h-2z"/><path d="M158 90.5c0 13.53-10.745 24.5-24 24.5s-24-10.97-24-24.5S120.745 66 134 66s24 10.97 24 24.5" fill="#FFF" mask="url(#d)"/><path fill="#0686D8" mask="url(#d)" d="M133 129h2v-12h-2z"/><path d="M134 112.272c-11.749 0-21.273-9.523-21.273-21.273 0-11.748 9.524-21.27 21.272-21.27 11.748-.002 21.273 9.522 21.273 21.27 0 11.75-9.525 21.273-21.273 21.273M134 63C118.536 63 106 75.536 106 91c-.001 15.463 12.536 28 28 28 15.463 0 28-12.537 28-28 0-15.464-12.537-28-28-28" fill="#9ECFEF" mask="url(#d)"/><path d="M134 120c-15.99 0-29-13.05-29-29.09A29.154 29.154 0 0 1 111.963 72l1.473 1.265a27.197 27.197 0 0 0-6.497 17.645c0 14.968 12.14 27.145 27.062 27.145 14.92 0 27.06-12.177 27.06-27.145a27.192 27.192 0 0 0-6.492-17.64l1.473-1.265A29.146 29.146 0 0 1 163 90.91c0 16.04-13.01 29.09-29 29.09" fill="#0686D8" mask="url(#d)"/><path fill="#9ECFEF" mask="url(#d)" d="M129 125v12h11v-12z"/><path fill="#0686D8" mask="url(#d)" d="M141 137h-1.937v-11.061h-9.126V137H128v-13h13z"/><path fill="#0686D8" mask="url(#d)" d="M129 134h12v-2h-12z"/><path d="M134 74.741c-6.087 0-11.02-5.037-11.02-11.253 0-6.213 4.933-11.251 11.02-11.251 6.085 0 11.02 5.038 11.02 11.251 0 6.216-4.935 11.253-11.02 11.253M134 46c-10.494 0-19 8.686-19 19.4 0 10.715 19 32.6 19 32.6s19-21.885 19-32.6c0-10.714-8.506-19.4-19-19.4" fill="#5FB0E5" mask="url(#d)"/><path d="M121.2 52.276l-1.343-1.358a20.47 20.47 0 0 1 1.636-1.48l1.188 1.497c-.514.417-1.013.869-1.48 1.34zm12.8.831c-5.57 0-10.1 4.58-10.1 10.206 0 5.627 4.53 10.206 10.1 10.206 5.57 0 10.1-4.58 10.1-10.206 0-5.627-4.53-10.206-10.1-10.206zm0 22.33C127.383 75.438 122 70 122 63.314c0-6.686 5.383-12.125 11.998-12.125 6.617 0 12 5.439 12 12.125s-5.383 12.125-12 12.125zM134 99l-.711-.809C132.501 97.293 114 76.08 114 65.21c0-3.784 1.042-7.474 3.012-10.671l1.613 1.014a18.374 18.374 0 0 0-2.726 9.657c0 9.008 14.669 26.834 18.1 30.88 3.433-4.046 18.102-21.874 18.102-30.88 0-10.084-8.12-18.29-18.102-18.29-2.25 0-4.449.413-6.53 1.227l-.686-1.79c2.302-.9 4.73-1.356 7.216-1.356C145.028 45 154 54.066 154 65.21c0 10.87-18.501 32.083-19.29 32.981L134 99zM27 138h210v-2H27z" fill="#0686D8" mask="url(#d)"/></g></svg>
