<svg width="38" height="50" xmlns="http://www.w3.org/2000/svg"><g fill="none" fill-rule="evenodd"><path d="M19 41.375L7.879 47.722V25.744H30.12v21.978L19 41.375z" stroke="#2A4D8F" stroke-width="2"/><path d="M19 38.512c-.324 0-.649-.126-.896-.376l-4.695-4.76H6.334c-.7 0-1.267-.573-1.267-1.283v-7.17L.37 20.162a1.295 1.295 0 0 1 0-1.815l4.696-4.758V6.419c0-.71.566-1.284 1.267-1.284h7.075L18.104.376a1.253 1.253 0 0 1 1.792 0l4.695 4.76h7.075c.7 0 1.267.573 1.267 1.283v7.17l4.696 4.76a1.295 1.295 0 0 1 0 1.815l-4.696 4.758v7.171c0 .71-.566 1.284-1.267 1.284h-7.075l-4.695 4.759c-.247.25-.572.376-.896.376z" fill="#2A4D8F" fill-rule="nonzero"/><ellipse fill="#FFF" cx="19.477" cy="19.519" rx="10.477" ry="10.519"/><path d="M20.768 14.326c-.747 0-1.362.22-1.846.66-.484.441-.796 1.08-.937 1.918h3.701v1.65h-3.838l-.019.329v.44l.019.31h3.26v1.67h-3.104c.312 1.518 1.294 2.278 2.947 2.278.876 0 1.717-.178 2.526-.535v2.4c-.71.37-1.607.554-2.691.554-1.5 0-2.733-.416-3.7-1.247-.968-.832-1.577-1.982-1.828-3.45H14v-1.67h1.084a3.626 3.626 0 0 1-.037-.581l.018-.497H14v-1.65h1.221c.227-1.514.836-2.71 1.828-3.588C18.04 12.44 19.28 12 20.768 12c1.15 0 2.228.256 3.232.769l-.9 2.175a9.08 9.08 0 0 0-1.184-.454 4 4 0 0 0-1.148-.164z" fill="#2A4D8F"/></g></svg>